<svg id="visual" viewBox="0 250 900 450" width="900" height="250" xmlns="http://www.w3.org/2000/svg" xmlns:xlink="http://www.w3.org/1999/xlink" version="1.1"><path d="M0 328L21.5 319.2C43 310.3 86 292.7 128.8 293.8C171.7 295 214.3 315 257.2 322C300 329 343 323 385.8 312.8C428.7 302.7 471.3 288.3 514.2 291.5C557 294.7 600 315.3 642.8 324.8C685.7 334.3 728.3 332.7 771.2 332.3C814 332 857 333 878.5 333.5L900 334L900 451L878.5 451C857 451 814 451 771.2 451C728.3 451 685.7 451 642.8 451C600 451 557 451 514.2 451C471.3 451 428.7 451 385.8 451C343 451 300 451 257.2 451C214.3 451 171.7 451 128.8 451C86 451 43 451 21.5 451L0 451Z" fill="#fa7268"></path><path d="M0 345L21.5 338.5C43 332 86 319 128.8 311C171.7 303 214.3 300 257.2 307.8C300 315.7 343 334.3 385.8 337.5C428.7 340.7 471.3 328.3 514.2 320C557 311.7 600 307.3 642.8 308.3C685.7 309.3 728.3 315.7 771.2 317.2C814 318.7 857 315.3 878.5 313.7L900 312L900 451L878.5 451C857 451 814 451 771.2 451C728.3 451 685.7 451 642.8 451C600 451 557 451 514.2 451C471.3 451 428.7 451 385.8 451C343 451 300 451 257.2 451C214.3 451 171.7 451 128.8 451C86 451 43 451 21.5 451L0 451Z" fill="#ef5f67"></path><path d="M0 346L21.5 352.2C43 358.3 86 370.7 128.8 367.8C171.7 365 214.3 347 257.2 338.3C300 329.7 343 330.3 385.8 333.5C428.7 336.7 471.3 342.3 514.2 346C557 349.7 600 351.3 642.8 350.3C685.7 349.3 728.3 345.7 771.2 348.2C814 350.7 857 359.3 878.5 363.7L900 368L900 451L878.5 451C857 451 814 451 771.2 451C728.3 451 685.7 451 642.8 451C600 451 557 451 514.2 451C471.3 451 428.7 451 385.8 451C343 451 300 451 257.2 451C214.3 451 171.7 451 128.8 451C86 451 43 451 21.5 451L0 451Z" fill="#e34c67"></path><path d="M0 382L21.5 384.5C43 387 86 392 128.8 395.5C171.7 399 214.3 401 257.2 394.8C300 388.7 343 374.3 385.8 371.7C428.7 369 471.3 378 514.2 385.2C557 392.3 600 397.7 642.8 400.5C685.7 403.3 728.3 403.7 771.2 403.7C814 403.7 857 403.3 878.5 403.2L900 403L900 451L878.5 451C857 451 814 451 771.2 451C728.3 451 685.7 451 642.8 451C600 451 557 451 514.2 451C471.3 451 428.7 451 385.8 451C343 451 300 451 257.2 451C214.3 451 171.7 451 128.8 451C86 451 43 451 21.5 451L0 451Z" fill="#d53867"></path><path d="M0 398L21.5 397.8C43 397.7 86 397.3 128.8 401C171.7 404.7 214.3 412.3 257.2 414.8C300 417.3 343 414.7 385.8 414C428.7 413.3 471.3 414.7 514.2 412.2C557 409.7 600 403.3 642.8 400.5C685.7 397.7 728.3 398.3 771.2 402.5C814 406.7 857 414.3 878.5 418.2L900 422L900 451L878.5 451C857 451 814 451 771.2 451C728.3 451 685.7 451 642.8 451C600 451 557 451 514.2 451C471.3 451 428.7 451 385.8 451C343 451 300 451 257.2 451C214.3 451 171.7 451 128.8 451C86 451 43 451 21.5 451L0 451Z" fill="#c62368"></path></svg>