<svg
  xmlns="http://www.w3.org/2000/svg"
  viewBox="0 0 24 24"
  width="24"
  height="24"
>
  <!-- Background with white border -->
  <rect
    x="1"
    y="1"
    width="22"
    height="22"
    rx="4"
    fill="#000000"
    stroke="#ffffff"
    stroke-width="1.2"
  />

  <!-- White X -->
  <path
    fill="#ffffff"
    d="M15.5454 18.0475 6.4315 5.95294h2.01878L17.5642 18.0475h-2.0188Zm-5.6024-4.9423L4.0278 19.449h2.04691l4.82948-5.179 3.7133 4.9278c0.0871 0.1155 0.2043 0.2018 0.3364 0.2512h4.4223c0.1748-0.0654 0.3224-0.195 0.4085-0.3679 0.1269-0.2545 0.099-0.5589-0.0722-0.786l-5.6142-7.4503L20.0173 4.5h-2.051l-4.8298 5.17932-3.7133-4.92774c-0.08729-0.11583-0.20496-0.20227-0.3375-0.25158H4.66571c-0.17536 0.06527-0.32332 0.19509-0.40968 0.3683-0.12689 0.2545-0.09892 0.55889 0.07223 0.78601l5.61418 7.45029Z"
  />
</svg>